<?xml version="1.0" encoding="UTF-8"?>
<svg xmlns="http://www.w3.org/2000/svg" viewBox="0 0 973 281">
  <defs>
    <style>
      .cls-1 {
        fill: #020202;
      }

      .cls-1, .cls-2, .cls-3, .cls-4, .cls-5 {
        stroke-width: 0px;
      }

      .cls-6 {
        letter-spacing: -.02em;
      }

      .cls-6, .cls-7 {
        font-family: CascadiaCode-Roman, 'Cascadia Code';
        font-size: 24px;
        font-variation-settings: 'wght' 400;
      }

      .cls-7 {
        letter-spacing: -.03em;
      }

      .cls-2 {
        fill: #fff;
      }

      .cls-3 {
        fill: #969696;
      }

      .cls-8 {
        fill: none;
        stroke: #020202;
        stroke-miterlimit: 10;
        stroke-width: 12px;
      }

      .cls-4 {
        fill: #d0d0d0;
      }

      .cls-5 {
        fill: #181a1d;
      }
    </style>
  </defs>
  <g id="Layer_2" data-name="Layer 2">
    <rect class="cls-2" width="973" height="281"/>
  </g>
  <g id="Layer_1" data-name="Layer 1">
    <path class="cls-1" d="M21.85,76.6c4.94,0,9.88-.01,14.82-.02,3.73,0,10.56,1.45,13.9-.03,2.57-1.14,1.3-3.06,1.66-5.76.68-5.13,4.76-5.66,9.15-6.69,9.93-2.31,20.03-1.68,30.14-1.65,10.78.03,21.56.05,32.34.05,10.41,0,20.82,0,31.23,0,5.2,0,10.41,0,15.61,0,2.23,0,4.46,0,6.69,0,1.24,0,5.06-.68,6.34.03,1.15.64.74,1.8,1.93,2.36,1.48.7,3.81-.54,5.33.03,3.89,1.46.34,5.42,2.9,7.51,1.65,1.35,8.31.16,10.38.16,5.49,0,10.97,0,16.46,0,5.12,0,10.24,0,15.36,0,4.68,0,8.82,1.54,13.38,1.71,6.46.24,21.06-5.18,21.64,5.81.19,3.53.48,5.61-2.42,7.9-3.99,3.16-7.43,2.59-12.15,1.8-5.08-.85-8.61-.17-13.53.69-4.6.81-9.56.29-14.23.29-10.66,0-21.34-.21-31.99,0-6.85.14-.89,6.05-5.32,8.05-.92.41-2.74-.02-3.75.05-1.62.12-1.97.58-3.15,1.01-1.7.61-1.06,1-3.93,1-2.7,0-5.4.01-8.1.01-10.41,0-20.82,0-31.23,0-23.73,0-47.67.91-71.38,0-4.53-.17-9.23-1.29-13.44-2.98-2.01-.81-3.15-1.4-3.89-3.49-.65-1.81.32-3.75-.24-5.42-1.24-3.7-8-1.93-11.27-1.93-6.41,0-12.82.04-19.23.06v-10.54ZM213.68,88.02c1.32,0,5.33.7,6.34-.29.99-.96.25-4.76.25-6.06,0-1.36.75-5.02-.27-6.05-1.01-1.02-4.88-.25-6.24-.25-1.31,0-5.17-.75-6.15.17-1.13,1.07-.31,5.74-.31,7.19,0,1.36-.62,3.99.23,5.05.73.9,5.08.24,6.16.24ZM231.26,88.04c1.3,0,5.51.71,6.53-.25,1.05-.99.24-5.73.25-7.08,0-1.05.64-4.16-.24-5.06-1.06-1.07-5.66-.26-7.07-.26-2.45,0-4.33-.75-5.36,1.46-.43.93.07,4.02.03,5.06-.06,1.45-.96,4.51.32,5.68,1.55,1.41,3.74.18,5.54.46ZM190.34,81.87c0-2.49,2.23-17.23-3.74-14.14-2.99,1.55-1.22,13.18-1.23,16.6,0,3.25-1.91,10.98,2.06,11.77,5.06,1.01,2.9-11.02,2.9-14.23ZM250.17,81.69c0,1.37-.49,3.45.6,4.48,1.14,1.07,5.94.91,7.49,1.09,2.81.33,2.64.84,3.77-1.11.67-1.16.16-6.36-.03-7.79-.29-2.21.22-1.81-1.62-2.52-1.24-.48-5.74.6-7.11.97-3.05.83-3.09,1.67-3.09,4.88ZM193.06,81.65c0,5.3-.84,6.36,4.64,6.36,5.41,0,4.52-.89,4.52-6.25,0-1.38.75-5.11-.3-6.15-.74-.72-4.51-.23-5.27-.22-4.76.09-3.57,1.81-3.58,6.26ZM243.17,81.87c0,2.16-1.23,5.86,1.7,5.41,2.78-.43,2.57-3.04,2.57-5.11,0-2.12.82-5.79-2.44-5.92-2.93-.11-1.84,3.28-1.84,5.61ZM154.57,82.07c0-1.94.57-16.14-.84-15.95-.96.13-.32,12.9-.32,14.68,0,1.85-.52,17.1.56,17.09,1.17-.01.61-14.38.6-15.82ZM67.95,82.08c0-1.7.79-15.95-.54-16.06-1.12-.1-.63,13.32-.63,14.78,0,2.04-.31,17.21.85,16.93,1.13-.27.31-14,.31-15.65ZM264.73,81.8h-.01c0,2.37-1.02,5.51,1.76,4.16,1.97-.95,2.1-3.06,1.81-4.98-.14-.95-.8-4.6-2.78-4.05-1.44.4-.77,3.59-.77,4.88Z"/>
    <path class="cls-3" d="M213.68,88.02c-1.08,0-5.43.66-6.16-.24-.86-1.05-.24-3.69-.23-5.05,0-1.45-.82-6.11.31-7.19.98-.93,4.84-.18,6.15-.17,1.36,0,5.23-.77,6.24.25,1.03,1.03.27,4.69.27,6.05,0,1.3.75,5.1-.25,6.06-1.02.98-5.03.29-6.34.29Z"/>
    <path class="cls-3" d="M231.26,88.04c-1.8-.28-3.98.96-5.54-.46-1.28-1.17-.38-4.23-.32-5.68.04-1.04-.47-4.13-.03-5.06,1.04-2.21,2.91-1.46,5.36-1.46,1.41,0,6.01-.81,7.07.26.88.89.24,4,.24,5.06,0,1.35.8,6.1-.25,7.08-1.02.96-5.23.25-6.53.25Z"/>
    <path class="cls-3" d="M190.33,81.87c0,3.21,2.16,15.24-2.9,14.23-3.97-.79-2.07-8.52-2.06-11.77,0-3.42-1.76-15.05,1.23-16.6,5.97-3.09,3.74,11.65,3.74,14.14Z"/>
    <path class="cls-3" d="M250.17,81.69c0-3.21.04-4.05,3.09-4.88,1.37-.37,5.87-1.45,7.11-.97,1.85.71,1.33.31,1.62,2.52.19,1.43.7,6.64.03,7.79-1.13,1.95-.96,1.44-3.77,1.11-1.55-.18-6.35-.02-7.49-1.09-1.09-1.02-.6-3.1-.59-4.48Z"/>
    <path class="cls-3" d="M193.06,81.65c0-4.45-1.18-6.17,3.58-6.26.77-.01,4.53-.5,5.27.22,1.06,1.04.3,4.77.3,6.15,0,5.36.9,6.25-4.52,6.25-5.47,0-4.64-1.06-4.63-6.36Z"/>
    <path class="cls-3" d="M243.16,81.87c0-2.33-1.09-5.72,1.84-5.61,3.26.12,2.44,3.79,2.44,5.92,0,2.07.2,4.69-2.57,5.11-2.93.45-1.7-3.25-1.7-5.41Z"/>
    <path class="cls-4" d="M154.58,82.07c0,1.44.56,15.81-.61,15.82-1.08.01-.56-15.24-.56-17.09,0-1.78-.64-14.55.32-14.68,1.41-.19.84,14,.84,15.95Z"/>
    <path class="cls-4" d="M67.95,82.08c0,1.65.82,15.39-.31,15.65-1.16.27-.85-14.89-.85-16.93,0-1.46-.5-14.88.63-14.78,1.33.11.54,14.36.54,16.06Z"/>
    <path class="cls-3" d="M264.73,81.8c0-1.29-.67-4.48.77-4.88,1.98-.55,2.64,3.11,2.78,4.05.29,1.93.16,4.03-1.81,4.98-2.78,1.35-1.76-1.79-1.76-4.16h.01Z"/>
    <g>
      <path class="cls-1" d="M595.11,132.27c1.5-2.83-.9-5.82,2.06-8.49,2.85-2.57,8.61-2.98,12.19-3.54,9.67-1.54,19.78-.71,29.54-.69,10.41.03,20.81.04,31.22.04,10.04,0,20.07,0,30.11-.01,4.83,0,9.66,0,14.5,0,3.61,0,11.29-1.46,14.64.01,2.63,1.15,1.68,3.62,1.75,6.51.13,5.04,3.3,3.59,7.85,3.59,9.86,0,19.72,0,29.58,0,4.75,0,9.49-.02,14.24-.02,4.9,0,9.29,1.71,14.03,1.81,6.67.14,15.92-4.56,20.67,2.57,4.41,6.62-1.55,13.32-8.37,13.55-3.76.12-7.57-1.15-11.34-1.35-4.5-.23-8.8,1.63-13.42,1.65-10.14.04-20.27-.02-30.41-.02-4.88,0-9.76,0-14.64-.02-5.46-.02-8.18-1.32-8.17,4.58,0,5.1.4,5.61-4.95,5.6-5.26-.01-10.52,0-15.78,0-10.14,0-20.28,0-30.43,0-11.64,0-23.29,0-34.93,0-11.22,0-23.23,1.24-34.36-.09-3.81-.46-9.41-1.26-12.62-3.35-3.72-2.43-1.52-5.64-3.14-8.69M748.07,145.15h0c5.25,0,10.5.09,15.75.02,5.43-.07,3.88-2.45,3.91-7.35.03-4.88.3-5.38-4.97-5.37-4.9.01-9.8.02-14.7.02-5.27,0-10.57-.19-15.84-.03-4.41.14-3.9,1.23-3.88,5.43.02,4.98-1.43,7.17,3.99,7.28,5.24.11,10.51,0,15.75,0ZM779.16,145.15c1.25,0,5.09.67,6.07-.21,1.05-.94.3-4.76.3-6.07,0-1.34.74-5.07-.23-6.08-1.03-1.07-4.69-.32-6.07-.32-1.33,0-5.07-.75-6.07.22-1.12,1.08-.3,5.64-.3,7.09,0,1.28-.67,4.27.33,5.15.99.87,4.71.22,5.96.22ZM809.38,138.88c0-5.78.55-6.18-5.4-5.39-5.26.7-7.32-.37-7.32,5.36,0,2.02-.58,3.54,1.13,4.62,1,.63,5.04.62,6.24.77,5.88.76,5.35.4,5.35-5.36ZM697.57,139.09c0-4.79.01-9.59-.01-14.38,0-.55.3-1.5-.49-1.53-1.01-.04-.63.99-.64,1.56-.02,9.59-.02,19.17-.01,28.76,0,.57-.24,1.5.51,1.53,1.06.04.61-1,.62-1.56.04-4.79.02-9.59.03-14.38ZM610.94,139.04c0-4.79.01-9.58-.01-14.37,0-.54.32-1.45-.56-1.48-.98-.03-.55.92-.55,1.41-.03,9.65-.04,19.3-.02,28.94,0,.54-.3,1.49.53,1.47,1.01-.02.59-1.03.59-1.61.03-4.79.02-9.58.02-14.37ZM793.93,138.92c0-1.63.73-6.37-2.52-5.53-1.51.39-.75,3.93-.76,5.32,0,1.43-.74,5.18.84,5.67,3.02.93,2.44-4.17,2.45-5.47ZM812.12,133.75c0,2.38-1.77,11.68,2.26,9.13,3.94-2.49.8-7.64-2.26-9.13Z"/>
      <path class="cls-3" d="M748.07,145.15c-5.24,0-10.51.12-15.75,0-5.42-.12-3.97-2.31-3.99-7.28-.02-4.21-.53-5.29,3.88-5.43,5.26-.16,10.57.03,15.84.03,4.9,0,9.8,0,14.7-.02,5.27-.01,5,.49,4.97,5.37-.03,4.9,1.53,7.28-3.91,7.35-5.25.07-10.5,0-15.75,0h0Z"/>
      <path class="cls-3" d="M779.16,145.15c-1.25,0-4.97.65-5.96-.22-1-.88-.33-3.87-.33-5.15,0-1.44-.82-6.01.3-7.09,1-.97,4.74-.23,6.07-.22,1.38,0,5.04-.75,6.07.32.97,1.01.23,4.75.23,6.08,0,1.31.75,5.13-.3,6.07-.98.88-4.82.21-6.07.21Z"/>
      <path class="cls-3" d="M809.38,138.88c0,5.75.53,6.12-5.35,5.36-1.2-.15-5.23-.14-6.24-.77-1.71-1.08-1.13-2.6-1.13-4.62,0-5.73,2.06-4.66,7.32-5.36,5.94-.79,5.4-.39,5.4,5.39Z"/>
      <path class="cls-4" d="M697.57,139.09c0,4.79.01,9.59-.02,14.38,0,.56.44,1.6-.62,1.56-.75-.03-.5-.96-.51-1.53,0-9.59-.01-19.17.01-28.76,0-.58-.37-1.6.64-1.56.79.03.48.98.49,1.53.02,4.79.01,9.59.01,14.38Z"/>
      <path class="cls-4" d="M610.94,139.04c0,4.79.01,9.58-.02,14.37,0,.59.42,1.6-.59,1.61-.84.01-.53-.93-.53-1.47-.01-9.65-.01-19.3.02-28.94,0-.5-.42-1.45.55-1.41.88.03.55.94.56,1.48.02,4.79.01,9.58.01,14.37Z"/>
      <path class="cls-3" d="M793.93,138.92c0,1.3.58,6.39-2.45,5.47-1.57-.48-.84-4.24-.84-5.67,0-1.39-.76-4.93.76-5.32,3.26-.84,2.52,3.9,2.52,5.53Z"/>
      <path class="cls-3" d="M812.12,133.75c3.06,1.49,6.2,6.64,2.26,9.13-4.03,2.55-2.26-6.75-2.26-9.13Z"/>
    </g>
    <path class="cls-1" d="M21.55,196.75c4.94,0,9.88-.01,14.82-.02,3.73,0,10.56,1.45,13.9-.03,2.57-1.14,1.3-3.06,1.66-5.76.68-5.13,4.76-5.66,9.15-6.69,9.93-2.31,20.03-1.68,30.14-1.65,10.78.03,21.56.05,32.34.05,10.41,0,20.82,0,31.23,0,5.2,0,10.41,0,15.61,0,2.23,0,4.46,0,6.69,0,1.24,0,5.06-.68,6.34.03,1.15.64.74,1.8,1.93,2.36,1.48.7,3.81-.54,5.33.03,3.89,1.46.34,5.42,2.9,7.51,1.65,1.35,8.31.16,10.38.16,5.49,0,10.97,0,16.46,0,5.12,0,10.24,0,15.36,0,4.68,0,8.82,1.54,13.38,1.71,6.46.24,21.06-5.18,21.64,5.81.19,3.53.48,5.61-2.42,7.9-3.99,3.16-7.43,2.59-12.15,1.8-5.08-.85-8.61-.17-13.53.69-4.6.81-9.56.29-14.23.29-10.66,0-21.34-.21-31.99,0-6.85.14-.89,6.05-5.32,8.05-.92.41-2.74-.02-3.75.05-1.62.12-1.97.58-3.15,1.01-1.7.61-1.06,1-3.93,1-2.7,0-5.4.01-8.1.01-10.41,0-20.82,0-31.23,0-23.73,0-47.67.91-71.38,0-4.53-.17-9.23-1.29-13.44-2.98-2.01-.81-3.15-1.4-3.89-3.49-.65-1.81.32-3.75-.24-5.42-1.24-3.7-8-1.93-11.27-1.93-6.41,0-12.82.04-19.23.06v-10.54ZM213.38,208.17c1.32,0,5.33.7,6.34-.29.99-.96.25-4.76.25-6.06,0-1.36.75-5.02-.27-6.05-1.01-1.02-4.88-.25-6.24-.25-1.31,0-5.17-.75-6.15.17-1.13,1.07-.31,5.74-.31,7.19,0,1.36-.62,3.99.23,5.05.73.9,5.08.24,6.16.24ZM230.96,208.19c1.3,0,5.51.71,6.53-.25,1.05-.99.24-5.73.25-7.08,0-1.05.64-4.16-.24-5.06-1.06-1.07-5.66-.26-7.07-.26-2.45,0-4.33-.75-5.36,1.46-.43.93.07,4.02.03,5.06-.06,1.45-.96,4.51.32,5.68,1.55,1.41,3.74.18,5.54.46ZM190.04,202.03c0-2.49,2.23-17.23-3.74-14.14-2.99,1.55-1.22,13.18-1.23,16.6,0,3.25-1.91,10.98,2.06,11.77,5.06,1.01,2.9-11.02,2.9-14.23ZM249.87,201.84c0,1.37-.49,3.45.6,4.48,1.14,1.07,5.94.91,7.49,1.09,2.81.33,2.64.84,3.77-1.11.67-1.16.16-6.36-.03-7.79-.29-2.21.22-1.81-1.62-2.52-1.24-.48-5.74.6-7.11.97-3.05.83-3.09,1.67-3.09,4.88ZM192.76,201.8c0,5.3-.84,6.36,4.64,6.36,5.41,0,4.52-.89,4.52-6.25,0-1.38.75-5.11-.3-6.15-.74-.72-4.51-.23-5.27-.22-4.76.09-3.57,1.81-3.58,6.26ZM242.87,202.02c0,2.16-1.23,5.86,1.7,5.41,2.78-.43,2.57-3.04,2.57-5.11,0-2.12.82-5.79-2.44-5.92-2.93-.11-1.84,3.28-1.84,5.61ZM154.28,202.22c0-1.94.57-16.14-.84-15.95-.96.13-.32,12.9-.32,14.68,0,1.85-.52,17.1.56,17.09,1.17-.01.61-14.38.6-15.82ZM67.65,202.23c0-1.7.79-15.95-.54-16.06-1.12-.1-.63,13.32-.63,14.78,0,2.04-.31,17.21.85,16.93,1.13-.27.31-14,.31-15.65ZM264.43,201.95h-.01c0,2.37-1.02,5.51,1.76,4.16,1.97-.95,2.1-3.06,1.81-4.98-.14-.95-.8-4.6-2.78-4.05-1.44.4-.77,3.59-.77,4.88Z"/>
    <path class="cls-3" d="M213.38,208.17c-1.08,0-5.43.66-6.16-.24-.86-1.05-.24-3.69-.23-5.05,0-1.45-.82-6.11.31-7.19.98-.93,4.84-.18,6.15-.17,1.36,0,5.23-.77,6.24.25,1.03,1.03.27,4.69.27,6.05,0,1.3.75,5.1-.25,6.06-1.02.98-5.03.29-6.34.29Z"/>
    <path class="cls-3" d="M230.96,208.19c-1.8-.28-3.98.96-5.54-.46-1.28-1.17-.38-4.23-.32-5.68.04-1.04-.47-4.13-.03-5.06,1.04-2.21,2.91-1.46,5.36-1.46,1.41,0,6.01-.81,7.07.26.88.89.24,4,.24,5.06,0,1.35.8,6.1-.25,7.08-1.02.96-5.23.25-6.53.25Z"/>
    <path class="cls-3" d="M190.04,202.03c0,3.21,2.16,15.24-2.9,14.23-3.97-.79-2.07-8.52-2.06-11.77,0-3.42-1.76-15.05,1.23-16.6,5.97-3.09,3.74,11.65,3.74,14.14Z"/>
    <path class="cls-3" d="M249.87,201.84c0-3.21.04-4.05,3.09-4.88,1.37-.37,5.87-1.45,7.11-.97,1.85.71,1.33.31,1.62,2.52.19,1.43.7,6.64.03,7.79-1.13,1.95-.96,1.44-3.77,1.11-1.55-.18-6.35-.02-7.49-1.09-1.09-1.02-.6-3.1-.59-4.48Z"/>
    <path class="cls-3" d="M192.77,201.8c0-4.45-1.18-6.17,3.58-6.26.77-.01,4.53-.5,5.27.22,1.06,1.04.3,4.77.3,6.15,0,5.36.9,6.25-4.52,6.25-5.47,0-4.64-1.06-4.63-6.36Z"/>
    <path class="cls-3" d="M242.87,202.02c0-2.33-1.09-5.72,1.84-5.61,3.26.12,2.44,3.79,2.44,5.92,0,2.07.2,4.69-2.57,5.11-2.93.45-1.7-3.25-1.7-5.41Z"/>
    <path class="cls-4" d="M154.28,202.22c0,1.44.56,15.81-.61,15.82-1.08.01-.56-15.24-.56-17.09,0-1.78-.64-14.55.32-14.68,1.41-.19.84,14,.84,15.95Z"/>
    <path class="cls-4" d="M67.65,202.23c0,1.65.82,15.39-.31,15.65-1.16.27-.85-14.89-.85-16.93,0-1.46-.5-14.88.63-14.78,1.33.11.54,14.36.54,16.06Z"/>
    <path class="cls-3" d="M264.43,201.95c0-1.29-.67-4.48.77-4.88,1.98-.55,2.64,3.11,2.78,4.05.29,1.93.16,4.03-1.81,4.98-2.78,1.35-1.76-1.79-1.76-4.16h.01Z"/>
    <g>
      <path class="cls-1" d="M306.32,92.11c-.22,2.24-1.15,5,2.02,6.19,1.53.57,3.85-.67,5.33.03,1.19.57.78,1.72,1.93,2.36,1.28.71,5.11.03,6.34.03,2.23,0,4.46,0,6.69,0,5.2,0,10.41,0,15.61,0,10.41,0,20.82-.01,31.23,0,10.78,0,21.56.02,32.34.05,10.12.03,20.22.66,30.14-1.65,4.39-1.02,8.47-1.56,9.15-6.69l-.12-16.43c-.56-1.66.4-5.4-.24-7.22-.74-2.09-1.88-2.67-3.89-3.49-4.21-1.69-8.91-2.81-13.44-2.98-23.71-.91-47.65,0-71.38,0-10.41,0-20.82,0-31.23,0-2.7,0-5.4.02-8.1.01-2.86,0-2.23.38-3.93,1-1.18.43-1.54.89-3.15,1.01-1.01.07-2.84-.36-3.75.05-2.54,1.15-1.66,3.59-1.75,5.48M306.28,81.57,306.26,74.39c0,.11.02.23.03.34M312.75,95.49c-5.97,3.09-3.74-11.65-3.74-14.14,0-3.21-2.15-15.24,2.9-14.23,3.97.79,2.07,8.52,2.06,11.77,0,3.42,1.76,15.05-1.23,16.6ZM345.61,97.09c-1.41.19-.84-14-.84-15.95,0-1.44-.56-15.81.6-15.82,1.08-.01.56,15.24.56,17.09,0,1.78.64,14.55-.32,14.68ZM431.93,97.2c-1.33-.11-.54-14.36-.54-16.06,0-1.65-.82-15.39.31-15.65,1.16-.27.85,14.89.85,16.93,0,1.46.5,14.88-.63,14.78Z"/>
      <path class="cls-3" d="M309.01,81.35c0-3.21-2.16-15.24,2.9-14.23,3.97.79,2.07,8.52,2.06,11.77,0,3.42,1.76,15.05-1.23,16.6-5.97,3.09-3.74-11.65-3.74-14.14Z"/>
      <path class="cls-4" d="M344.77,81.15c0-1.44-.56-15.81.61-15.82,1.08-.01.56,15.24.56,17.09,0,1.78.64,14.55-.32,14.68-1.41.19-.84-14-.84-15.95Z"/>
      <path class="cls-4" d="M431.4,81.14c0-1.65-.82-15.39.31-15.65,1.16-.27.85,14.89.85,16.93,0,1.46.5,14.88-.63,14.78-1.33-.11-.54-14.36-.54-16.06Z"/>
    </g>
    <g>
      <path class="cls-1" d="M306.59,209.86c-.22,2.24-1.15,5,2.02,6.19,1.53.57,3.85-.67,5.33.03,1.19.57.78,1.72,1.93,2.36,1.28.71,5.11.03,6.34.03,2.23,0,4.46,0,6.69,0,5.2,0,10.41,0,15.61,0,10.41,0,20.82-.01,31.23,0,10.78,0,21.56.02,32.34.05,10.12.03,20.22.66,30.14-1.65,4.39-1.02,8.47-1.56,9.15-6.69l-.39-17.18c-.56-1.66.67-4.66.02-6.47-.74-2.09-1.88-2.67-3.89-3.49-4.21-1.69-8.91-2.81-13.44-2.98-23.71-.91-47.65,0-71.38,0-10.41,0-20.82,0-31.23,0-2.7,0-5.4.02-8.1.01-2.86,0-2.23.38-3.93,1-1.18.43-1.54.89-3.15,1.01-1.01.07-2.84-.36-3.75.05-2.54,1.15-1.66,3.59-1.75,5.48M306.55,199.31,306.52,192.13c0,.11.02.23.03.34M313.02,213.23c-5.97,3.09-3.74-11.65-3.74-14.14,0-3.21-2.15-15.24,2.9-14.23,3.97.79,2.07,8.52,2.06,11.77,0,3.42,1.76,15.05-1.23,16.6ZM345.88,214.84c-1.41.19-.84-14-.84-15.95,0-1.44-.56-15.81.6-15.82,1.08-.01.56,15.24.56,17.09,0,1.78.64,14.55-.32,14.68ZM432.2,214.95c-1.33-.11-.54-14.36-.54-16.06,0-1.65-.82-15.39.31-15.65,1.16-.27.85,14.89.85,16.93,0,1.46.5,14.88-.63,14.78Z"/>
      <path class="cls-3" d="M309.28,199.09c0-3.21-2.16-15.24,2.9-14.23,3.97.79,2.07,8.52,2.06,11.77,0,3.42,1.76,15.05-1.23,16.6-5.97,3.09-3.74-11.65-3.74-14.14Z"/>
      <path class="cls-4" d="M345.04,198.89c0-1.44-.56-15.81.61-15.82,1.08-.01.56,15.24.56,17.09,0,1.78.64,14.55-.32,14.68-1.41.19-.84-14-.84-15.95Z"/>
      <path class="cls-4" d="M431.66,198.89c0-1.65-.82-15.39.31-15.65,1.16-.27.85,14.89.85,16.93,0,1.46.5,14.88-.63,14.78-1.33-.11-.54-14.36-.54-16.06Z"/>
    </g>
    <path class="cls-5" d="M927.57,105.67l9.35-16.25c2.72-4.74,1.13-10.8-3.62-13.58-4.74-2.72-10.8-1.13-13.53,3.62l-9.39,16.3c-19.96-6.29-42.28,1.83-53.18,20.72-6.91,11.98-7.8,25.79-3.57,37.91l17.29-29.97h0c3.99-6.91,10.38-11.79,18.04-13.86,7.66-2.07,15.69-.99,22.59,2.96,14.19,8.22,19.07,26.45,10.9,40.68-8.22,14.23-26.45,19.12-40.63,10.9l9.91-17.19c4.74,2.72,10.8,1.13,13.53-3.62s1.13-10.8-3.62-13.58c-4.74-2.72-10.8-1.13-13.53,3.62l-31.61,54.82c-2.72,4.74-1.13,10.8,3.62,13.53,4.74,2.72,10.8,1.13,13.53-3.62l9.35-16.21c19.96,6.29,42.28-1.83,53.18-20.72,10.95-18.88,6.81-42.28-8.6-56.46Z"/>
    <text class="cls-6" transform="translate(594.88 186.29)"><tspan x="0" y="0">To Peloton Tablet</tspan></text>
    <text class="cls-6" transform="translate(53.67 258.25)"><tspan x="0" y="0">Peloton Sensor</tspan></text>
    <text class="cls-7" transform="translate(55.5 40.47)"><tspan x="0" y="0">SmartSpin2k</tspan></text>
    <path class="cls-8" d="M437.13,81h55.74c32.66,0,59.13,24.6,59.13,54.94v8.12c0,30.34-26.47,54.94-59.13,54.94h-55.74"/>
    <line class="cls-8" x1="552" y1="139" x2="603" y2="139"/>
  </g>
</svg>